<svg xmlns="http://www.w3.org/2000/svg" width="16" height="16" viewBox="0 0 16 16">
    <path d="M11.5 13.386H10l1-4.882h1.5zm-2.75 0h-1.5V8.504h1.5zm-2.75 0H4.5l-1-4.882H5zm9.551-7.477c.248 0 .449.194.449.434v.414c0 .24-.201.434-.449.434h-.122l-1.555 7.836a1.003 1.003 0 0 1-.986.766H3.096c-.474 0-.885-.319-.987-.766L.555 7.19H.463a.445.445 0 0 1-.44-.35l-.015-.415a.435.435 0 0 1 .441-.517h1.463a.758.758 0 0 1 .033-.064l2.69-4.66a.75.75 0 0 1 1.3.75L3.64 5.91h8.6L9.945 1.935a.75.75 0 1 1 1.3-.75l2.69 4.66a.758.758 0 0 1 .033.064zm-1.695 1.5H2.127l1.366 6.884h8.997z"/>
</svg>