<svg xmlns="http://www.w3.org/2000/svg" width="18" height="18" viewBox="0 0 18 18"><path fill="#4285f4" d="M17.618 9.213c0-.61-.05-1.223-.155-1.823H9v3.455h4.846a4.153 4.153 0 0 1-1.793 2.726v2.242h2.891c1.698-1.563 2.674-3.87 2.674-6.6z"/><path fill="#34a853" d="M9.008 17.973c2.42 0 4.46-.795 5.947-2.166l-2.891-2.242c-.805.547-1.843.857-3.053.857-2.34 0-4.325-1.579-5.037-3.702H.99v2.311a8.973 8.973 0 0 0 8.018 4.942z"/><path fill="#fbbc04" d="M3.965 10.726a5.374 5.374 0 0 1 0-3.435V4.98H.985a8.98 8.98 0 0 0 0 8.057z"/><path fill="#ea4335" d="M9.008 3.581a4.876 4.876 0 0 1 3.441 1.345l2.562-2.561A8.623 8.623 0 0 0 9.008.03 8.97 8.97 0 0 0 .99 4.976l2.98 2.31C4.68 5.16 6.667 3.582 9.008 3.582z"/></svg>