<svg xmlns="http://www.w3.org/2000/svg" width="16" height="16" viewBox="0 0 16 15"><path d="M6.468 2.222L7.93 3.684h.14l1.462-1.462.141-.133a2.968 2.968 0 0 1 1.926-.738c.742 0 1.509.312 2.186.877l.133.14a3.092 3.092 0 0 1-.14 4.213L8 12.47 2.222 6.58l-.133-.141a3.093 3.093 0 0 1 .132-4.218c1.199-1.2 3.048-1.2 4.247 0zM1.294 7.508l6.636 6.748h.14l6.636-6.749.157-.165a4.374 4.374 0 0 0-.157-6.047C13.905.494 12.757.028 11.599.028l-.231.007-.248.02c-.99.109-1.937.55-2.628 1.24l-.499.598-.598-.598-.154-.157C5.612-.43 2.966-.378 1.294 1.295a4.376 4.376 0 0 0 0 6.213z"/></svg>