<svg xmlns="http://www.w3.org/2000/svg" width="16" height="16" viewBox="0 0 15 17">
    <g transform="rotate(-45 8 8)">
        <path d="M6 3.718a1 1 0 1 1 2 0 1 1 0 0 1-2 0zm2.114-4.783c.081.067.156.142.224.223l3.505 3.001c.263.315.407.712.407 1.122v10.437a1.75 1.75 0 0 1-1.75 1.75h-7a1.75 1.75 0 0 1-1.75-1.75V3.28c0-.41.143-.805.405-1.12L5.649-.839a1.75 1.75 0 0 1 2.465-.226zM6.803.12l-3.495 3a.25.25 0 0 0-.058.16v10.438c0 .138.112.25.25.25h7a.25.25 0 0 0 .25-.25V3.281a.25.25 0 0 0-.058-.16L7.187.12 7.155.088a.25.25 0 0 0-.352.032z"/>
    </g>
</svg>