<svg xmlns="http://www.w3.org/2000/svg" width="153" height="155" viewBox="0 0 153 155"><g><g><g transform="rotate(-30 105.5 47)"><g><path fill="#08283a" d="M47.62 55.96c0-8.836 7.163-16 16-16h26.12v-.027c10.34-.509 18.768-8.288 20.279-18.333h36.961v50.76H47.62z"/></g><g><path fill="#1db954" d="M77.86 47.52a2.16 2.16 0 1 0 0-4.32 2.16 2.16 0 0 0 0 4.32z"/></g><g><path fill="#1db954" d="M87.58 47.52a2.16 2.16 0 1 0 0-4.32 2.16 2.16 0 0 0 0 4.32z"/></g><g><path fill="#1db954" d="M97.3 46.44a2.16 2.16 0 1 0 0-4.32 2.16 2.16 0 0 0 0 4.32z"/></g><g><path fill="#1db954" d="M107.02 42.12a2.16 2.16 0 1 0 0-4.32 2.16 2.16 0 0 0 0 4.32z"/></g><g><path fill="#1db954" d="M113.5 33.48a2.16 2.16 0 1 0 0-4.32 2.16 2.16 0 0 0 0 4.32z"/></g></g><g><path fill="#1db954" d="M43.41 136.9v-45h5.4v45zm27 0v-45h5.4v45zm27 0v-45h5.4v45zm-93.6 9a9 9 0 0 0 9 9h119.7a9 9 0 0 0 9-9V82a9 9 0 0 0-9-9H12.81a9 9 0 0 0-9 9z"/></g><g><g transform="rotate(-60 47 58.5)"><path fill="#1db954" d="M24.42 55.8h45v5.4h-45z"/></g><g transform="rotate(-120 101 58.5)"><path fill="#1db954" d="M78.42 55.8h45v5.4h-45z"/></g></g><g><path fill="#06a83f" d="M.923 77.761A4 4 0 0 1 4.85 73H140a4 4 0 0 1 4 4v3.82a4 4 0 0 1-4 4H5.59a4 4 0 0 1-3.927-3.239z"/></g></g></g></svg>