<svg width="222.00000000000003" height="125" xmlns="http://www.w3.org/2000/svg">
 <defs>
  <clipPath id="lylaa">
   <path id="svg_1" d="m80.2,33.5c21.373,0 38.7,17.327 38.7,38.7s-17.327,38.7 -38.7,38.7s-38.7,-17.327 -38.7,-38.7s17.327,-38.7 38.7,-38.7z"/>
  </clipPath>
 </defs>
 <g>
  <title>background</title>
  <rect fill="none" id="canvas_background" height="402" width="582" y="-1" x="-1"/>
 </g>
 <g>
  <title>Layer 1</title>
  <g id="svg_4">
   <path id="svg_5" d="m55,9.9c0,-5.468 4.432,-9.9 9.9,-9.9l130.2,0c5.468,0 9.9,4.432 9.9,9.9l0,90.2c0,5.468 -4.432,9.9 -9.9,9.9l-130.2,0c-5.468,0 -9.9,-4.432 -9.9,-9.9l0,-90.2z" fill="#fff"/>
  </g>
  <g id="svg_6" opacity="0.05">
   <path id="svg_7" d="m62,14a7,7 0 0 1 7,-7l122,0a7,7 0 0 1 7,7l0,82a7,7 0 0 1 -7,7l-122,0a7,7 0 0 1 -7,-7l0,-82z" fill="#08283a"/>
  </g>
  <g id="svg_8">
   <path id="svg_9" d="m40,119a5,5 0 0 1 5,-5l171.2,0a5,5 0 0 1 5,5l0,0.7a5,5 0 0 1 -5,5l-171.2,0a5,5 0 0 1 -5,-5l0,-0.7z" fill="#fff"/>
  </g>
  <g id="svg_10">
   <path id="svg_11" d="m184.1,50.7c9.941,0 18,-8.059 18,-18s-8.059,-18 -18,-18s-18,8.059 -18,18s8.059,18 18,18z" fill="#1db954"/>
  </g>
  <g id="svg_12">
   <g id="svg_13">
    <text id="svg_14" x="177.016949" y="36.932201" font-size="18" font-family="'Raleway','Raleway-Bold'" fill="#fff">
     <tspan id="svg_15">%</tspan>
    </text>
   </g>
  </g>
  <g id="svg_16">
   <g id="svg_17">
    <path id="svg_18" d="m103.3,70.275c0,-7.18 5.82,-13 13,-13l21.718,0l0,-0.022c8.523,-0.415 15.47,-6.76 16.716,-14.953l30.466,0l0,41.4l-47.182,0l0,-0.01l-34.718,0l0,-13.415z" fill="#08283a"/>
   </g>
   <g id="svg_19">
    <path id="svg_20" d="m128.5,63.9a1.8,1.8 0 1 0 0,-3.6a1.8,1.8 0 0 0 0,3.6z" fill="#1db954"/>
   </g>
   <g id="svg_21">
    <path id="svg_22" d="m135.7,63.9a1.8,1.8 0 1 0 0,-3.6a1.8,1.8 0 0 0 0,3.6z" fill="#1db954"/>
   </g>
   <g id="svg_23">
    <path id="svg_24" d="m143.8,63a1.8,1.8 0 1 0 0,-3.6a1.8,1.8 0 0 0 0,3.6z" fill="#1db954"/>
   </g>
   <g id="svg_25">
    <path id="svg_26" d="m151.9,59.4a1.8,1.8 0 1 0 0,-3.6a1.8,1.8 0 0 0 0,3.6z" fill="#1db954"/>
   </g>
   <g id="svg_27">
    <path id="svg_28" d="m157.3,52.2a1.8,1.8 0 1 0 0,-3.6a1.8,1.8 0 0 0 0,3.6z" fill="#1db954"/>
   </g>
  </g>
  <g id="svg_30" transform="rotate(55.124088287353516 21.35189056396484,108.56060028076172) matrix(1,0,0,1,7.581715722225169,-65.51356390197247) ">
   <path id="svg_31" d="m9.270176,152.024164l9,0l0,44.1l-9,0l0,-44.1z" fill="#1db954"/>
  </g>
  <g id="svg_32" transform="rotate(-23 78.27839660644534,70.92770385742185) matrix(1,0,0,1,7.581715722225169,-65.51356390197247) ">
   <path id="svg_33" d="m71.910541,99.08777c21.373,0 38.7,17.327 38.7,38.7s-17.327,38.7 -38.7,38.7s-38.7,-17.327 -38.7,-38.7s17.327,-38.7 38.7,-38.7zm0,-9c-26.344,0 -47.7,21.356 -47.7,47.7s21.356,47.7 47.7,47.7s47.7,-21.356 47.7,-47.7s-21.356,-47.7 -47.7,-47.7z" fill="#1db954"/>
  </g>
  <g id="svg_34">
   <g id="svg_35">
    <path id="svg_36" d="m80.2,33.5c21.373,0 38.7,17.327 38.7,38.7s-17.327,38.7 -38.7,38.7s-38.7,-17.327 -38.7,-38.7s17.327,-38.7 38.7,-38.7z" fill="#f2f4f5"/>
   </g>
   <g id="svg_37" clip-path="url(#lylaa)">
    <g id="svg_38">
     <path id="svg_39" d="m75.4,69.834c0,-10.494 8.507,-19 19,-19l31.544,0l0,-0.034c12.408,-0.611 22.521,-9.947 24.334,-22l44.354,0l0,60.913l-119.232,0l0,-19.879z" fill="#08283a"/>
    </g>
    <g id="svg_40">
     <path id="svg_41" d="m111.692,59.904a2.592,2.592 0 1 0 0,-5.184a2.592,2.592 0 0 0 0,5.184z" fill="#1db954"/>
    </g>
    <g id="svg_42">
     <path id="svg_43" d="m123.352,59.904a2.592,2.592 0 1 0 0,-5.184a2.592,2.592 0 0 0 0,5.184z" fill="#1db954"/>
    </g>
    <g id="svg_44">
     <path id="svg_45" d="m135.012,58.604a2.592,2.592 0 1 0 0,-5.184a2.592,2.592 0 0 0 0,5.184z" fill="#1db954"/>
    </g>
    <g id="svg_46">
     <path id="svg_47" d="m146.682,53.424a2.592,2.592 0 1 0 0,-5.184a2.592,2.592 0 0 0 0,5.184z" fill="#1db954"/>
    </g>
    <g id="svg_48">
     <path id="svg_49" d="m154.452,43.054a2.592,2.592 0 1 0 0,-5.184a2.592,2.592 0 0 0 0,5.184z" fill="#1db954"/>
    </g>
   </g>
  </g>
 </g>
</svg>