<svg xmlns="http://www.w3.org/2000/svg" width="136" height="176" viewBox="0 0 136 176"><g><g><g opacity=".4"><path fill="#1db954" d="M0 80.8l94.571-24.007A18 18 0 0 1 117 74.24v71.36L0 175.3z"/></g><g><path fill="#ced4d8" d="M58.4 46.8c12.923 0 23.4-10.477 23.4-23.4C81.8 10.477 71.323 0 58.4 0 45.477 0 35 10.477 35 23.4c0 12.923 10.477 23.4 23.4 23.4z"/></g><g opacity=".4" transform="rotate(25 59.5 21.5)"><g><text dominant-baseline="text-before-edge" style="font-kerning:normal" fill="#08283a" font-family="'Raleway Medium','Raleway-Medium'" font-size="30" transform="translate(44 2)"><tspan style="font-kerning:normal">2</tspan></text></g></g><g><path fill="#b6bfc5" d="M37.8 73.4c13.807 0 25-11.193 25-25s-11.193-25-25-25-25 11.193-25 25 11.193 25 25 25z"/></g><g opacity=".4" transform="rotate(-21 38 45.5)"><g><text dominant-baseline="text-before-edge" style="font-kerning:normal" fill="#08283a" font-family="'Raleway Medium','Raleway-Medium'" font-size="30" transform="translate(25 26)"><tspan style="font-kerning:normal">1</tspan></text></g></g><g><path fill="#f2f4f5" d="M67.5 108.7c16.9 0 30.6-13.7 30.6-30.6 0-16.9-13.7-30.6-30.6-30.6-16.9 0-30.6 13.7-30.6 30.6 0 16.9 13.7 30.6 30.6 30.6z"/></g><g opacity=".4"><g><text dominant-baseline="text-before-edge" style="font-kerning:normal" fill="#08283a" font-family="'Raleway Medium','Raleway-Medium'" font-size="30" transform="translate(60 53)"><tspan style="font-kerning:normal">5</tspan></text></g></g><g><path fill="#1db954" d="M0 80.8h117.9c9.941 0 18 8.059 18 18v76.5H0z"/></g><g><path fill="#06a83f" d="M77.9 127.05c0-9.941 8.059-18 18-18h40v38h-40c-9.941 0-18-8.059-18-18z"/></g><g><path fill="#08283a" d="M98 133a5 5 0 1 0 0-10 5 5 0 0 0 0 10z"/></g></g></g></svg>