<svg xmlns="http://www.w3.org/2000/svg" width="16" height="16" viewBox="0 0 16 16"><path d="M5.491 9.08a2.837 2.837 0 115.242-2.17A2.837 2.837 0 015.49 9.08zm1.081-1.085a1.54 1.54 0 103.08 0 1.54 1.54 0 00-3.08 0zm1.423 7.97a2.119 2.119 0 01-2.093-1.816 6.15 6.15 0 01-.778-.325 2.115 2.115 0 01-2.763-.194 2.115 2.115 0 01-.204-2.764 6.149 6.149 0 01-.324-.778 2.115 2.115 0 010-4.186 6.15 6.15 0 01.324-.778 2.11 2.11 0 012.967-2.967 6.15 6.15 0 01.778-.324 2.115 2.115 0 014.186 0c.267.09.527.199.778.324a2.11 2.11 0 012.967 2.967c.126.252.234.512.324.778a2.115 2.115 0 010 4.186c-.09.267-.198.527-.324.778a2.11 2.11 0 01-1.695 3.4 2.08 2.08 0 01-1.272-.433 6.148 6.148 0 01-.778.324 2.119 2.119 0 01-2.093 1.808zM5.34 12.466c.427.256.889.448 1.37.571.318.08.526.385.485.71v.107a.817.817 0 001.635 0V13.751a.649.649 0 01.484-.71 5.224 5.224 0 001.37-.57.657.657 0 01.866.164l.026.035c.01.017.023.033.039.047a.835.835 0 001.15 0 .822.822 0 000-1.154l-.048-.035-.034-.026a.657.657 0 01-.165-.865c.255-.427.447-.889.571-1.37a.644.644 0 01.71-.485h.107a.817.817 0 000-1.634h-.108a.644.644 0 01-.709-.485 5.224 5.224 0 00-.57-1.37.657.657 0 01.164-.865l.034-.026a.207.207 0 00.048-.04.815.815 0 10-1.155-1.15.431.431 0 00-.034.048l-.026.035a.657.657 0 01-.865.164 5.224 5.224 0 00-1.371-.57.649.649 0 01-.484-.71V2.07a.817.817 0 00-1.635 0v.105a.649.649 0 01-.484.709 5.164 5.164 0 00-1.371.57.657.657 0 01-.865-.164l-.026-.034a.208.208 0 00-.039-.048.813.813 0 00-1.15 0 .822.822 0 000 1.155l.048.034.034.026c.268.204.34.577.164.865a5.224 5.224 0 00-.57 1.37.649.649 0 01-.71.485h-.108a.817.817 0 000 1.635h.104a.649.649 0 01.71.484c.123.482.316.944.57 1.371a.657.657 0 01-.164.865l-.035.026a.208.208 0 00-.047.039.817.817 0 000 1.15.839.839 0 001.154 0 .431.431 0 00.035-.048l.026-.034a.657.657 0 01.536-.255.65.65 0 01.333.09z"/></svg>