<svg xmlns="http://www.w3.org/2000/svg" width="12" height="12" viewBox="0 0 12 12">
    <defs>
        <mask id="mask">
            <path fill="#fff" d="M0 0h12v12H0z"/>
        </mask>
    </defs>
    <path d="M5.997 1.09c-.01 0-.026.012-.034.038l-.889 2.86c-.148.476-.58.805-1.076.805H1.12c-.01 0-.024.012-.033.038-.01.034.001.07.021.086l2.328 1.767c.389.295.549.809.404 1.277l-.89 2.863c-.011.035 0 .072.02.087.01.007.017.007.026 0l2.329-1.769a1.11 1.11 0 0 1 1.345 0l2.328 1.77c.008.006.015.006.025-.002.02-.015.031-.051.02-.085l-.888-2.86c-.146-.47.015-.983.403-1.278l2.328-1.77c.018-.015.03-.051.02-.085-.01-.026-.024-.038-.035-.038H7.996c-.495 0-.927-.328-1.076-.804l-.89-2.862a.06.06 0 0 0-.021-.033zM6.002 0c.494 0 .925.328 1.074.803l.889 2.86c.008.026.023.038.034.038h2.875c.496.002.926.33 1.073.805.145.467-.013.98-.4 1.275L9.22 7.55c-.02.015-.032.052-.021.086l.888 2.858c.145.47-.015.982-.403 1.277a1.108 1.108 0 0 1-1.344 0l-2.326-1.768c-.01-.006-.016-.006-.026 0l-2.325 1.768c-.4.304-.948.304-1.348 0a1.171 1.171 0 0 1-.4-1.281l.888-2.858c.01-.033 0-.07-.021-.085L.456 5.782a1.171 1.171 0 0 1-.403-1.277c.147-.476.58-.805 1.074-.806h2.876c.01 0 .026-.011.034-.038L4.926.803c.14-.443.522-.756.971-.798z"/>
    <path mask="url(#mask)" d="M6.002 0c.494 0 .925.328 1.074.803l.889 2.86c.008.026.023.038.034.038h2.875c.496.002.926.33 1.073.805.145.467-.013.98-.4 1.275L9.22 7.55c-.02.015-.032.052-.021.086l.888 2.858c.145.47-.015.982-.403 1.277a1.108 1.108 0 0 1-1.344 0l-2.326-1.768c-.01-.006-.016-.006-.026 0l-2.325 1.768c-.4.304-.948.304-1.348 0a1.171 1.171 0 0 1-.4-1.281l.888-2.858c.01-.033 0-.07-.021-.085L.456 5.782a1.171 1.171 0 0 1-.403-1.277c.147-.476.58-.805 1.074-.806h2.876c.01 0 .026-.011.034-.038L4.926.803c.14-.443.522-.756.971-.798z"/>
</svg>