<svg xmlns="http://www.w3.org/2000/svg" width="16" height="16" viewBox="0 0 16 16"><path d="M7.996 1.455c-.014 0-.034.015-.045.05L6.765 5.317a1.51 1.51 0 01-1.434 1.074H1.494c-.013 0-.033.015-.044.05-.014.045 0 .094.028.114L4.58 8.912c.518.393.732 1.078.539 1.703l-1.187 3.817c-.015.047 0 .096.027.116.013.01.023.01.035 0L7.1 12.19a1.48 1.48 0 011.795 0l3.103 2.36c.011.008.02.008.033-.002.027-.02.042-.069.028-.114l-1.185-3.813a1.563 1.563 0 01.538-1.705l3.103-2.36c.025-.019.04-.067.026-.112-.01-.035-.031-.05-.045-.05H10.66A1.51 1.51 0 019.226 5.32L8.041 1.504a.08.08 0 00-.03-.044zM8.003 0c.658 0 1.233.437 1.431 1.07l1.186 3.814c.01.035.031.05.045.05h3.834a1.51 1.51 0 011.43 1.074 1.561 1.561 0 01-.532 1.7l-3.104 2.36c-.027.02-.042.069-.028.114l1.185 3.811a1.562 1.562 0 01-.539 1.703 1.478 1.478 0 01-1.791 0L8.019 13.34c-.012-.009-.022-.009-.034 0l-3.101 2.357a1.478 1.478 0 01-1.797 0 1.561 1.561 0 01-.534-1.708l1.185-3.81c.013-.045-.002-.093-.029-.113L.608 7.71A1.561 1.561 0 01.07 6.007a1.509 1.509 0 011.431-1.075h3.836c.013 0 .034-.015.044-.05L6.568 1.07A1.514 1.514 0 017.863.006z"/></svg>