<svg xmlns="http://www.w3.org/2000/svg" width="22" height="18" viewBox="0 0 22 18"><path fill="#fff" d="M7.002 18c8.412 0 13.015-6.927 13.015-12.924 0-.195 0-.39-.01-.585a9.283 9.283 0 0 0 2.284-2.356 9.32 9.32 0 0 1-2.631.717A4.576 4.576 0 0 0 21.676.337a9.137 9.137 0 0 1-2.908 1.098A4.58 4.58 0 0 0 15.432 0c-2.525 0-4.576 2.037-4.576 4.544 0 .355.044.7.116 1.037A13.019 13.019 0 0 1 1.543.833a4.519 4.519 0 0 0-.615 2.285c0 1.577.811 2.968 2.033 3.783a4.651 4.651 0 0 1-2.069-.567v.062c0 2.197 1.579 4.039 3.666 4.455-.383.107-.785.16-1.204.16-.294 0-.58-.027-.856-.08a4.57 4.57 0 0 0 4.272 3.154 9.215 9.215 0 0 1-5.682 1.948c-.365 0-.731-.017-1.088-.062A13.077 13.077 0 0 0 7.002 18"/></svg>